<?xml version="1.0" standalone="no"?><!DOCTYPE svg PUBLIC "-//W3C//DTD SVG 1.1//EN"
  "http://www.w3.org/Graphics/SVG/1.1/DTD/svg11.dtd">
<svg t="1767609475451" class="icon" viewBox="0 0 1024 1024" version="1.1" xmlns="http://www.w3.org/2000/svg" p-id="4673"
     xmlns:xlink="http://www.w3.org/1999/xlink" width="256" height="256">
  <path
    d="M512 938.666667A426.666667 426.666667 0 1 1 512 85.333333a426.666667 426.666667 0 0 1 0 853.333334z m0-85.333334a341.333333 341.333333 0 1 0 0-682.666666 341.333333 341.333333 0 0 0 0 682.666666z m-58.794667-494.336l208.213334 138.837334a17.066667 17.066667 0 0 1 0 28.416L453.12 665.002667A17.066667 17.066667 0 0 1 426.666667 650.752V373.162667a17.066667 17.066667 0 0 1 26.538666-14.165334z"
    opacity=".853" p-id="4674"></path>
</svg>
